<?xml version="1.0" encoding="utf-8"?>
<!-- Generator: Adobe Illustrator 28.1.0, SVG Export Plug-In . SVG Version: 6.00 Build 0)  -->
<svg version="1.1" id="Layer_1" xmlns="http://www.w3.org/2000/svg" xmlns:xlink="http://www.w3.org/1999/xlink" x="0px" y="0px"
	 viewBox="0 0 640 90" style="enable-background:new 0 0 640 90;" xml:space="preserve">
<style type="text/css">
	.st0{fill:#256295;}
</style>
<g>
	<g>
		<g>
			<path class="st0" d="M139.42,55.14v0.6c0,3.54,0.66,5.46,2.22,6.36c1.98,1.14,6.3,1.68,14.35,1.68c6.84,0,11.17-0.24,17.11-1.02
				c3.12-0.42,4.68-1.02,5.7-2.16c1.08-1.32,1.68-3,1.68-4.68c0-3.24-1.38-4.8-5.22-5.64c-2.34-0.48-2.4-0.48-17.41-0.6h-7.92
				c-11.65-0.06-16.21-1.02-19.27-3.78c-2.64-2.34-3.9-5.76-3.9-10.69c0-6.12,1.5-11.17,4.14-13.45c3.72-3.48,12.13-4.8,30.32-4.8
				c11.05,0,17.05,0.42,20.83,1.56c6.84,1.98,9.25,5.7,9.25,14.23v1.08h-12.37c-0.06-3.24-0.9-4.86-2.64-5.7
				c-2.34-1.08-7.62-1.74-13.69-1.74c-10.39,0-17.71,0.66-20.17,1.92c-1.98,0.9-3,2.82-3,5.34c0,2.4,0.72,3.96,2.34,4.86
				c1.92,1.08,5.04,1.38,13.69,1.38h9.37c16.51,0,21.55,0.9,25.04,4.62c2.34,2.4,3.36,6,3.36,11.47c0,5.76-1.26,9.73-3.96,12.37
				c-3.66,3.48-10.75,4.62-29.36,4.62c-19.81,0-26.06-0.9-29.48-4.2c-2.46-2.4-3.54-5.7-3.54-10.93c0-0.48,0-1.74,0.06-2.82h12.49
				V55.14z"/>
		</g>
		<g>
			<polygon class="st0" points="202.04,17.44 214.77,17.44 214.77,39.41 220.71,39.41 248.81,17.44 267.06,17.44 232,44.51 
				269.76,72.55 250.67,72.55 220.41,49.56 214.77,49.56 214.77,72.55 202.04,72.55 			"/>
		</g>
		<g>
			<polygon class="st0" points="274.99,17.44 287.71,17.44 287.71,72.55 274.99,72.55 274.99,17.44 			"/>
		</g>
		<g>
			<path class="st0" d="M298.4,17.44h14.41c3.3,0,6.3,1.68,8.05,4.44l23.17,37.04l23.05-36.98c1.74-2.76,4.8-4.44,8.05-4.44h14.17
				v55.11h-12.49l0.48-45.39l-28.52,45.39h-10.03l-28.34-45.39l0.36,45.39H298.4L298.4,17.44L298.4,17.44z"/>
		</g>
		<g>
			<path class="st0" d="M399.92,17.44h14.41c3.3,0,6.3,1.68,8.05,4.44l23.17,37.04l23.05-36.98c1.74-2.76,4.8-4.44,8.05-4.44h14.17
				v55.11h-12.49l0.48-45.39l-28.52,45.39h-10.03l-28.34-45.39l0.36,45.39h-12.37V17.44z"/>
		</g>
		<g>
			<polygon class="st0" points="501.45,17.44 560.04,17.44 560.04,27.1 513.99,27.1 513.99,40.13 557.76,40.13 557.76,48.84 
				513.99,48.84 513.99,62.88 560.52,62.88 560.52,72.55 501.45,72.55 			"/>
		</g>
		<g>
			<path class="st0" d="M568.81,17.44h45.45c9.67,0,14.05,1.14,17.05,4.38c2.4,2.64,3.54,6.96,3.54,13.21c0,6-0.72,9.43-2.4,11.47
				c-1.68,2.04-3.66,3.06-6.96,3.66c6.96,0.6,8.53,2.7,8.41,11.47v10.93H621.1v-8.29c-0.18-7.5-1.92-9.01-10.27-8.95h-29.42v17.17
				h-12.67V17.44H568.81z M610.47,45.17c9.25,0,11.59-1.68,11.59-8.29c0-7.62-1.92-9.19-11.35-9.19h-29.24v17.41h29V45.17z"/>
		</g>
	</g>
	<g>
		<g>
			<g>
				<path class="st0" d="M82.84,35.47l-4.51,4.59c-0.17,0.08-0.33,0.08-0.5,0c-5.68-5.68-13.28-8.85-21.39-8.85
					c-8.1,0-15.7,3.17-21.39,8.85c-0.08,0.08-0.33,0.08-0.5,0l-4.59-4.59c-0.08-0.08-0.08-0.33,0-0.5
					c14.62-14.62,38.26-14.62,52.88,0C83.01,35.13,83.01,35.3,82.84,35.47z"/>
			</g>
			<g>
				<path class="st0" d="M73.82,44.32c0,0.08,0,0.17-0.08,0.25l-4.51,4.59c-0.17,0.08-0.33,0.08-0.5,0c-3.26-3.26-7.6-5.1-12.28-5.1
					c-4.59,0-9.02,1.84-12.28,5.1c-0.17,0.08-0.33,0.08-0.5,0l-4.59-4.59c-0.17-0.17-0.17-0.33,0-0.5c9.52-9.52,25.06-9.52,34.67,0
					C73.82,44.16,73.82,44.24,73.82,44.32z"/>
			</g>
			<g>
				<path class="st0" d="M61.62,54.6c0,1.34-0.5,2.67-1.5,3.68c-2,2-5.35,2-7.35,0c-1-1-1.5-2.26-1.5-3.68c0-1.42,0.5-2.67,1.5-3.68
					c1-1,2.34-1.5,3.68-1.5c1.34,0,2.67,0.5,3.68,1.5C61.04,51.84,61.62,53.18,61.62,54.6z"/>
			</g>
		</g>
		<g>
			<g>
				<path class="st0" d="M105.64,9.49c-2.26-2.51-6.18-3.59-9.52-3.76c-5.43-0.33-39.76,0-39.76,0s-34.42-0.33-39.76,0
					c-3.34,0.17-7.1,1.34-9.27,3.84c-3.17,3.59-2,10.27-1.75,14.7c0.33,5.6,1.42,11.19,3.01,16.62c3.59,12.28,13.2,16.79,13.2,16.79
					l26.4,13.45l0.58,0.33v12.95h15.7V73.98l-5.26,0.08l31.91-16.37c0,0,9.61-4.51,13.2-16.79c1.59-5.43,2.67-11.03,3.01-16.62
					C107.48,19.85,108.82,13.08,105.64,9.49z M98.96,29.95c-0.58,4.26-1.67,7.43-2.92,11.61c-3.01,9.27-10.94,12.7-10.94,12.7
					L56.44,67.8l-28.9-13.53c0,0-7.94-3.42-10.94-12.7c-1.34-4.09-2.34-7.1-2.84-11.36c-0.42-3.42-1.5-9.69,1.17-12.36
					c1.84-1.92,5.68-1.5,8.44-1.67c4.43-0.25,33,0,33,0s28.49-0.25,33,0c2.76,0.17,6.77-0.33,8.69,1.59
					C100.63,20.43,99.55,25.86,98.96,29.95z"/>
			</g>
		</g>
	</g>
</g>
</svg>
